<svg width="62" height="49" viewBox="0 0 62 49" fill="none" xmlns="http://www.w3.org/2000/svg">
<g id="Addressable-Wheel">
<path d="M4 41H8V45H4V41Z" fill="#FF0054"/>
<path d="M11 41H15V45H11V41Z" fill="#EDFF86"/>
<path d="M22 42.8458C21.3219 42.3135 20.6739 41.7459 20.0589 41.1458C20.0093 41.0974 19.9599 41.0488 19.9108 41H18V45H22V43V42.8458Z" fill="#7CEA9C"/>
<path d="M37 48C50.2548 48 61 37.4787 61 24.5C61 11.5213 50.2548 1 37 1C23.7452 1 13 11.5213 13 24.5C13 29.6159 14.6695 34.35 17.5042 38.2083M37 48H1V38.2083H17.5042M37 48C31.3243 48 26.1088 46.0709 22 42.8458M17.5042 38.2083C18.2323 39.1995 19.0374 40.1328 19.9108 41M22 42.8458C21.3219 42.3135 20.6739 41.7459 20.0589 41.1458C20.0093 41.0974 19.9599 41.0488 19.9108 41M22 42.8458V43V45H18V41H19.9108M39.0585 8.96179V11.9295M39.0585 8.96179V6.00375M39.0585 8.96179C46.2488 9.86606 51.9453 15.4439 52.8688 22.4844M34.9416 8.96179V11.9295M34.9416 8.96179V6.00375M34.9416 8.96179C27.7512 9.86605 22.0547 15.4439 21.1312 22.4844M34.9416 11.9295V14.916M34.9416 11.9295C29.4105 12.7911 25.042 17.0686 24.1621 22.4844M39.0585 11.9295V14.916M39.0585 11.9295C44.5895 12.7911 48.958 17.0686 49.8379 22.4844M39.0585 14.916V17.2133C41.667 17.9183 43.7217 19.9302 44.4417 22.4844H46.7879M39.0585 14.916C42.9295 15.7091 45.9779 18.6941 46.7879 22.4844M34.9416 14.916V17.2133C32.333 17.9183 30.2783 19.9302 29.5583 22.4844H27.2121M34.9416 14.916C31.0705 15.7091 28.0221 18.6941 27.2121 22.4844M34.9416 6.00375V3.9375C24.9321 4.88644 16.9691 12.6835 16 22.4844H18.1102M34.9416 6.00375C26.0925 6.93721 19.0635 13.8197 18.1102 22.4844M39.0585 6.00375V3.9375C49.0679 4.88644 57.0309 12.6835 58 22.4844H55.8898M39.0585 6.00375C47.9075 6.93721 54.9365 13.8197 55.8898 22.4844M18.1102 22.4844H21.1312M18.1102 26.5156H16C16.9691 36.3165 24.9321 44.1136 34.9416 45.0625V42.9963M18.1102 26.5156H21.1312M18.1102 26.5156C19.0635 35.1803 26.0925 42.0628 34.9416 42.9963M21.1312 26.5156H24.1621M21.1312 26.5156C22.0547 33.5561 27.7512 39.1339 34.9416 40.0382M21.1312 22.4844H24.1621M24.1621 22.4844H27.2121M24.1621 26.5156H27.2121M24.1621 26.5156C25.042 31.9314 29.4105 36.2089 34.9416 37.0705M27.2121 26.5156H29.5583C30.2783 29.0698 32.333 31.0817 34.9416 31.7867V34.084M27.2121 26.5156C28.0221 30.3059 31.0705 33.2909 34.9416 34.084M34.9416 34.084V37.0705M39.0584 34.084V31.7867C41.667 31.0817 43.7217 29.0698 44.4417 26.5156H46.7879M39.0584 34.084V37.0705M39.0584 34.084C42.9295 33.2909 45.9779 30.3059 46.7879 26.5156M34.9416 37.0705V40.0382M39.0584 37.0705V40.0382M39.0584 37.0705C44.5895 36.2089 48.958 31.9314 49.8379 26.5156M39.0584 40.0382V42.9963M39.0584 40.0382C46.2488 39.1339 51.9453 33.5562 52.8688 26.5156M34.9416 40.0382V42.9963M39.0584 42.9963V45.0625C49.0679 44.1136 57.0309 36.3165 58 26.5156H55.8898M39.0584 42.9963C47.9075 42.0628 54.9365 35.1803 55.8898 26.5156M46.7879 22.4844H49.8379M46.7879 26.5156H49.8379M49.8379 26.5156H52.8688M49.8379 22.4844H52.8688M52.8688 22.4844H55.8898M52.8688 26.5156H55.8898M41 24.5C41 26.6631 39.2091 28.4167 37 28.4167C34.7909 28.4167 33 26.6631 33 24.5C33 22.3369 34.7909 20.5833 37 20.5833C39.2091 20.5833 41 22.3369 41 24.5ZM4 41H8V45H4V41ZM11 41H15V45H11V41Z" stroke="black"/>
</g>
</svg>
