<svg width="33" height="41" viewBox="0 0 33 41" fill="none" xmlns="http://www.w3.org/2000/svg">
<path d="M0.5 5C0.5 2.51472 2.51472 0.5 5 0.5H20.1444L25.9959 6.83914L31.8629 13.195L31.8138 36.0097C31.8084 38.4912 29.7953 40.5 27.3138 40.5H5C2.51472 40.5 0.5 38.4853 0.5 36V5Z" stroke="inherit"/>
<path d="M22.6792 28.8869L16.2996 35.8686C16.2203 35.9554 16.0836 35.9554 16.0043 35.8686L9.62464 28.8869C9.50735 28.7585 9.59841 28.552 9.77228 28.552H14.1514C14.2618 28.552 14.3514 28.4624 14.3514 28.352V18.8362C14.3514 18.7258 14.4409 18.6362 14.5514 18.6362H17.78C17.8905 18.6362 17.98 18.7258 17.98 18.8362V28.352C17.98 28.4624 18.0696 28.552 18.18 28.552H22.5316C22.7055 28.552 22.7965 28.7585 22.6792 28.8869Z" stroke="inherit"/>
</svg>
